<svg id="Layer_1" data-name="Layer 1" xmlns="http://www.w3.org/2000/svg" viewBox="0 0 65.94 9.07"><defs><style>.cls-1{fill:#46c0e4;}.cls-2{fill:#231f20;}</style></defs><path class="cls-1" d="M5.52,6.27a.1.1,0,0,0,.07,0,.12.12,0,0,0,.1,0,.13.13,0,0,0,0-.18l-1-.72,0,0H4.56l-1,.73a.14.14,0,0,0,0,.18.13.13,0,0,0,.17,0l.93-.66Z"/><path class="cls-1" d="M3.92,5.27l.06,0,.63-.46.62.45a.12.12,0,0,0,.17,0,.13.13,0,0,0,0-.18l-.69-.51H4.56L3.85,5a.11.11,0,0,0-.05.09.1.1,0,0,0,0,.09A.11.11,0,0,0,3.92,5.27Z"/><path class="cls-1" d="M4.22,4.26a.08.08,0,0,0,.07,0L4.62,4l.3.23a.13.13,0,0,0,.17,0,.15.15,0,0,0,0-.18L4.7,3.75H4.56L4.15,4a.14.14,0,0,0,0,.18A.12.12,0,0,0,4.22,4.26Z"/><path class="cls-1" d="M8.86,3.84a.15.15,0,0,0-.1-.11l-.15-.08A1.66,1.66,0,0,1,8.09,3h0A4,4,0,0,0,5.26.93h0A.71.71,0,0,1,4.94.81.36.36,0,0,1,4.85.59a.24.24,0,0,0,0-.1.11.11,0,0,0-.09,0,.17.17,0,0,0-.13.07L4.47.64A1.67,1.67,0,0,1,3.69,1h0A4,4,0,0,0,1.06,3.09h0a.75.75,0,0,1-.22.29c-.09,0-.13,0-.24,0a.18.18,0,0,0-.1,0,.1.1,0,0,0-.07.08.15.15,0,0,0,0,.14.46.46,0,0,1,.09.15,1.62,1.62,0,0,1,.12.83h0c0,.07,0,.14,0,.21A4,4,0,0,0,1.79,7.57h0a.65.65,0,0,1,.2.3.32.32,0,0,1-.05.23.19.19,0,0,0,0,.11A.09.09,0,0,0,2,8.29a.13.13,0,0,0,.14,0,.86.86,0,0,1,.17,0,1.64,1.64,0,0,1,.82.17h0a4,4,0,0,0,1.51.3,3.89,3.89,0,0,0,1.7-.39h0a.8.8,0,0,1,.35-.09c.1,0,.12.06.2.13a.26.26,0,0,0,.09.05.09.09,0,0,0,.1,0,.17.17,0,0,0,.07-.13,1,1,0,0,1,0-.17,1.62,1.62,0,0,1,.44-.73h0a3.89,3.89,0,0,0,1-2.62c0-.1,0-.2,0-.31h0a.7.7,0,0,1,0-.36c0-.09.1-.1.19-.15a.21.21,0,0,0,.08-.06A.1.1,0,0,0,8.86,3.84ZM8,3.4,4.87,1.11A3.7,3.7,0,0,1,8,3.4ZM1.83,5.67l.6-.93.73.57-.33,1.1Zm.93,1-.32,1L1.89,6ZM1.15,3.72v0l1.07.84-.54.84L1.14,3.73ZM2.93,3.5l-1.49,0,2.77-2ZM4.21,2,3.72,3.5H3.23ZM2.76,3.76l-.39.61-.76-.6ZM3,6.83l.36.26-.57.43Zm.57.42.7.51H2.86Zm.21-.16.74-.57V7.64Zm-.21-.16L3,6.57l.37-1.26v0a.11.11,0,0,0,0-.13l-.8-.64.49-.76h.8l0,0h0l0,0,.7-2.14.7,2.13h0l0,0h0s0,0,0,0h.78l.5.78-.79.62,0,0,0,0v0l0,0v0s0,0,0,0v0l.38,1.26-.5.37-1-.74,0,0h0s0,0,0,0ZM6.27,3.5,5,1.5l2.8,2Zm1.34.27-.77.61-.41-.62ZM6,3.5H5.51L5,2.06Zm-1.23,3,.72.55-.72.54Zm.93.71.7.52H5Zm.22-.16.36-.27.21.71Zm.57-.42L7.32,6,6.77,7.7ZM6.39,6.4,6.06,5.31l.72-.56.59.92ZM7,4.6l1.08-.85,0,0h0l-.56,1.7ZM4.35,1.11,1.17,3.4A3.72,3.72,0,0,1,4.35,1.11ZM.89,4.81A3.42,3.42,0,0,1,1,4L2.14,7.59A3.69,3.69,0,0,1,.89,4.81ZM4.6,8.52A3.63,3.63,0,0,1,2.75,8h3.7A3.61,3.61,0,0,1,4.6,8.52Zm2.47-.94L8.23,4a4,4,0,0,1,.08.78A3.71,3.71,0,0,1,7.07,7.58Z"/><rect class="cls-2" x="22.86" y="2.61" width="0.56" height="1.81"/><rect class="cls-2" x="26.48" y="2.61" width="0.56" height="1.81"/><polygon class="cls-2" points="22.86 7.1 23.41 7.1 23.41 5.56 26.48 5.56 26.48 7.1 27.04 7.1 27.04 5 22.86 5 22.86 7.1"/><path class="cls-2" d="M34.32,2.49A2.5,2.5,0,1,0,36.83,5,2.5,2.5,0,0,0,34.32,2.49Zm0,4.45a2,2,0,1,1,2-1.95A2,2,0,0,1,34.32,6.94Z"/><path class="cls-2" d="M54.54,6.94a1.95,1.95,0,1,1,0-3.9,1.93,1.93,0,0,1,1.16.39L56,3a2.5,2.5,0,1,0-1.5,4.51,2.46,2.46,0,0,0,1.81-.77L56,6.34A2,2,0,0,1,54.54,6.94Z"/><polygon class="cls-2" points="18.92 2.84 19.72 2.84 21.02 7.18 21.55 7.02 20.3 2.84 22.24 2.84 22.24 2.29 18.92 2.29 18.92 2.84"/><polygon class="cls-2" points="57.03 2.24 57.03 3.72 57.58 3.72 57.58 2.79 59.45 2.79 56.92 4.88 59.45 6.97 57.58 6.97 57.58 6.04 57.03 6.04 57.03 7.53 61 7.53 58.13 5.16 60.02 5.16 60.02 4.6 58.13 4.6 61 2.24 57.03 2.24"/><polygon class="cls-2" points="32.4 2.24 29.16 2.24 29.16 2.79 30.92 2.79 28.79 4.66 31.46 7.44 31.86 7.05 29.6 4.7 32.4 2.24"/><rect class="cls-2" x="28.06" y="5.3" width="0.56" height="1.95"/><rect class="cls-2" x="28.06" y="2.53" width="0.56" height="1.56"/><polygon class="cls-2" points="65.66 2.24 61.38 2.24 61.38 4.13 61.94 4.13 61.94 2.79 64.19 2.79 62.06 4.66 64.73 7.44 65.13 7.05 62.86 4.7 65.66 2.24"/><rect class="cls-2" x="61.32" y="5.3" width="0.56" height="1.95"/><path class="cls-2" d="M14.78,2.24H14.5V7.49h.55V3.4l3.16,4.53V2.24Zm2.88,3.92L15.31,2.79h2.35Z"/><path class="cls-2" d="M48,2.24h-.28V7.49h.56V3.4l3.16,4.53V2.24Zm2.88,3.92L48.54,2.79h2.35Z"/><path class="cls-2" d="M37.39,7.3H38V3.8l1.87,4.11L41.69,3.8V7.37h.56V2.25H37.39Zm.71-4.5h3.44L39.82,6.57Z"/><path class="cls-2" d="M8.92,7.58h5.17L11.51,1.92ZM9.79,7l1.72-3.77L13.23,7Z"/><path class="cls-2" d="M42.44,7.58h5.17L45,1.92ZM43.3,7,45,3.25,46.74,7Z"/></svg>